<svg width="96" height="96" viewBox="0 0 96 96" fill="none" xmlns="http://www.w3.org/2000/svg">
  <defs>
    <linearGradient id="sky" x1="48" y1="6" x2="48" y2="90" gradientUnits="userSpaceOnUse">
      <stop stop-color="#8FD2FF"/>
      <stop offset="1" stop-color="#1D4F9D"/>
    </linearGradient>
    <linearGradient id="shore" x1="12" y1="62" x2="84" y2="84" gradientUnits="userSpaceOnUse">
      <stop stop-color="#88D38A"/>
      <stop offset="1" stop-color="#315E2C"/>
    </linearGradient>
  </defs>
  <rect x="6" y="6" width="84" height="84" rx="42" fill="url(#sky)"/>
  <path d="M6 58C22 50 37 48 49 50C62 52 72 55 90 47V90H6V58Z" fill="url(#shore)"/>
  <path d="M6 68C22 64 38 63 48 66C61 70 74 69 90 62V90H6V68Z" fill="#376B2B" opacity="0.8"/>
  <path d="M59 30C57 25 53 20 48 18C44 20 40 24 39 31C38 38 42 47 48 52C55 47 61 39 59 30Z" fill="#2B1B16"/>
  <path d="M37 57C40 48 47 45 53 46C59 47 64 51 66 60C61 67 55 72 48 74C42 71 38 65 37 57Z" fill="#F36D8F"/>
  <circle cx="48" cy="35" r="10" fill="#F3C2A5"/>
  <path d="M39 34C41 29 45 26 49 26C53 26 57 28 59 34C56 33 53 33 50 33C46 33 43 34 39 34Z" fill="#2B1B16"/>
  <path d="M41 48C44 46 47 45 49 45C52 45 55 46 58 49C55 55 52 58 48 58C45 58 42 54 41 48Z" fill="#F7CEB6"/>
  <circle cx="48" cy="48" r="42" stroke="rgba(255,255,255,0.45)" stroke-width="2"/>
</svg>
